<svg width="16" height="16" fill="none" xmlns="http://www.w3.org/2000/svg"><g clip-path="url(#clip0_12_715)"><path d="M6.877.962c-.01.065-.016.131-.015.198v11.287l-.114-.246a2.29 2.29 0 00-.458-.647L3.125 8.39a1.185 1.185 0 00-1.517-.166 1.145 1.145 0 00-.15 1.717l5.725 5.724a1.145 1.145 0 001.619.001l5.725-5.725a1.145 1.145 0 00-.115-1.717 1.185 1.185 0 00-1.517.166l-3.17 3.16a2.29 2.29 0 00-.419.572l-.154.344V1.223A1.185 1.185 0 008.19.015a1.145 1.145 0 00-1.313.947z" fill="#fff"/></g><defs><clipPath id="clip0_12_715"><path fill="#fff" transform="rotate(-90 8 8)" d="M0 0h16v16H0z"/></clipPath></defs></svg>