<?xml version="1.0" standalone="no"?>
<!DOCTYPE svg PUBLIC "-//W3C//DTD SVG 20010904//EN"
 "http://www.w3.org/TR/2001/REC-SVG-20010904/DTD/svg10.dtd">
<svg version="1.0" xmlns="http://www.w3.org/2000/svg"
 width="76.000000pt" height="76.000000pt" viewBox="0 0 76.000000 76.000000"
 preserveAspectRatio="xMidYMid meet">
<metadata>
Created by potrace 1.14, written by Peter Selinger 2001-2017
</metadata>
<g transform="translate(0.000000,76.000000) scale(0.100000,-0.100000)"
fill="#000000" stroke="none">
<path d="M276 726 c7 -28 -7 -59 -47 -101 -68 -73 -36 -142 77 -165 114 -24
241 5 273 62 13 23 12 30 -7 68 -12 24 -19 47 -16 52 3 4 1 8 -5 8 -5 0 -11
-6 -14 -12 -8 -22 -37 24 -32 49 4 17 2 21 -10 17 -9 -4 -15 -1 -15 7 0 9 -3
10 -8 4 -4 -5 -16 -15 -26 -21 -35 -19 -32 -38 3 -20 l31 16 -6 -28 c-5 -25 0
-33 35 -61 41 -33 54 -72 29 -87 -6 -4 -9 -3 -5 2 3 5 -1 20 -8 33 l-13 24 -6
-21 c-10 -32 -23 -27 -18 7 3 22 -2 33 -23 50 -15 11 -34 21 -41 21 -8 0 -14
10 -14 23 -1 19 -51 87 -65 87 -14 0 -3 -52 15 -70 23 -23 26 -34 6 -27 -11 5
-12 0 -3 -24 15 -39 -5 -63 -28 -33 -13 17 -14 17 -15 2 0 -10 -8 -22 -19 -27
-25 -14 -33 -38 -20 -62 10 -20 10 -20 -15 -4 -41 27 -35 64 19 114 56 52 60
86 15 120 l-31 22 7 -25z m179 -208 c19 -15 19 -17 2 -36 -13 -15 -28 -19 -63
-17 -50 3 -74 18 -74 46 0 24 17 24 43 2 19 -17 20 -17 15 4 -3 12 1 31 9 43
l15 21 16 -23 c9 -13 25 -30 37 -40z"/>
<path d="M30 350 l0 -40 138 0 137 0 -3 -155 -3 -155 80 0 81 0 0 155 0 155
135 0 135 0 0 40 0 40 -350 0 -350 0 0 -40z"/>
</g>
</svg>
